<svg xmlns="http://www.w3.org/2000/svg" width="26" height="26"><path fill="#eeab7e" d="M10.288 11.142a3.716 3.716 0 00-1.096 2.646c0 1 .39 1.939 1.096 2.645a3.745 3.745 0 005.29 0 1.182 1.182 0 111.672 1.672 6.086 6.086 0 01-4.317 1.785 6.086 6.086 0 01-4.317-1.785 6.065 6.065 0 01-1.788-4.317c0-1.63.635-3.164 1.788-4.317a6.07 6.07 0 014.834-1.766l.305-.9a1.182 1.182 0 012.18-.143l1.539 3.122a1.182 1.182 0 01-.537 1.583l-3.122 1.54a1.18 1.18 0 01-1.642-1.44l.475-1.402a3.723 3.723 0 00-2.36 1.077zM13 0C5.832 0 0 5.832 0 13s5.832 13 13 13 13-5.832 13-13S20.168 0 13 0z"/></svg>