<svg xmlns="http://www.w3.org/2000/svg" width="41" height="43" viewBox="0 0 41 43"><g><g clip-path="url(#clip-802E75E6-92A0-4C31-9556-753782F4AC7A)"><g><path fill="#cfab8a" d="M30.035 24.695a3.326 3.326 0 0 1-3.338-3.357 3.326 3.326 0 0 1 3.338-3.356 3.326 3.326 0 0 1 3.337 3.356 3.326 3.326 0 0 1-3.337 3.357zm-9.53 0a3.329 3.329 0 0 1-3.342-3.357c0-1.87 1.48-3.356 3.342-3.356a3.329 3.329 0 0 1 3.342 3.356c0 1.87-1.48 3.357-3.342 3.357zm-9.54 0a3.326 3.326 0 0 1-3.337-3.357 3.326 3.326 0 0 1 3.337-3.356 3.326 3.326 0 0 1 3.337 3.356 3.326 3.326 0 0 1-3.337 3.357zm29.987-5.13a20.742 20.742 0 0 0-7.77-14.817C28.651 1.152 22.74-.334 17.018.625 6.817 2.399-.668 11.893.047 22.345c.334 5.035 2.432 9.686 5.96 13.234-.906 1.343-1.717 2.206-3.862 3.932-.43.336-.62.863-.477 1.39.096.528.477.96.954 1.103.715.24 1.764.336 2.956.336 2.526 0 5.72-.575 8.2-1.87a20.276 20.276 0 0 0 10.297.815c10.203-1.822 17.592-11.364 16.877-21.72z"/></g></g></g></svg>