<?xml version="1.0" encoding="UTF-8" standalone="no"?> <svg xmlns:dc="http://purl.org/dc/elements/1.1/" xmlns:cc="http://creativecommons.org/ns#" xmlns:rdf="http://www.w3.org/1999/02/22-rdf-syntax-ns#" xmlns:svg="http://www.w3.org/2000/svg" xmlns="http://www.w3.org/2000/svg" version="1.1" id="svg2" viewBox="0 0 212.59844 159.86083" height="45.11628mm" width="60mm"><defs id="defs4"></defs><metadata id="metadata7"></metadata><g transform="translate(851.51785,-386.78708)" id="layer1"><g style="fill:#ffffff;fill-opacity:1;stroke:none" transform="translate(460.41448,421.44035)" id="g4138"><g style="fill:#ffffff;fill-opacity:1;stroke:none" id="g4140"><path style="fill:#ffffff;fill-opacity:1;stroke:none" d="M 1,3 A 3,3 0 0 1 4,0 l 6,0 a 3,3 0 0 1 3,3 l 0,6" id="path4142"></path></g><g style="fill:#ffffff;fill-opacity:1;stroke:none" id="g4144"><g style="fill:#ffffff;fill-opacity:1;stroke:none" id="g4146"><path style="fill:#ffffff;fill-opacity:1;stroke:none" d="m 38.29,23.808 -0.058,0.056" id="path4148"></path></g></g></g><path id="path4173" d="m -817.17266,535.11791 c 0,-20.53626 2.40002,-23.59544 27.44364,-34.98085 9.2438,-4.20244 17.25891,-7.92016 17.81137,-8.26161 0.55246,-0.34144 -0.65251,-2.01507 -2.67772,-3.71918 -4.38439,-3.68921 -11.32729,-17.01992 -11.32729,-21.74895 0,-2.22653 -1.67823,-5.06346 -5,-8.45218 -4.3518,-4.43951 -5,-5.8373 -5,-10.78225 0,-4.82647 0.65841,-6.33991 4.375,-10.05649 4.37025,-4.37026 4.37501,-4.38759 4.38197,-15.97918 0.009,-14.0158 1.43614,-19.68845 6.36947,-25.30719 6.35145,-7.23391 11.5088,-8.40263 35.06594,-7.94642 20.09911,0.38924 20.75907,0.48736 25.81731,3.83835 8.16682,5.41036 10.57042,11.43213 11.24198,28.16464 0.4869,12.13136 0.89163,14.27779 2.89425,15.34956 3.30279,1.7676 6.10408,7.77165 6.10408,13.08299 0,3.60765 -1.02265,5.57848 -5,9.63599 -3.21785,3.28269 -5.00435,6.25508 -5.01221,8.33935 -0.0186,4.95664 -5.40563,15.43505 -10.45749,20.34135 l -4.53018,4.39965 18.63469,8.44537 c 26.56274,12.03842 28.86519,14.89072 28.86519,35.75857 l 0,12.41863 -4.375,0 -4.375,0 0,-10.66515 c 0,-15.10164 -1.617,-18.30636 -11.76065,-23.30843 -4.48748,-2.21287 -8.41686,-3.76558 -8.73196,-3.45047 -0.31512,0.31511 0.20955,4.22381 1.16592,8.68599 2.80128,13.06998 2.90169,12.80737 -8.09951,21.18188 l -9.92621,7.55618 -23.89759,0 -23.89759,0 -9.92621,-7.55617 c -11.0012,-8.37452 -10.90079,-8.1119 -8.09951,-21.18189 0.95637,-4.46218 1.48103,-8.37088 1.16592,-8.68599 -0.3151,-0.31511 -4.24449,1.2376 -8.73196,3.45048 -10.14365,5.00206 -11.76065,8.20678 -11.76065,23.30842 l 0,10.66515 -4.375,0 -4.375,0 z m 75.16373,-0.27545 4.53873,-11.5594 -4.85123,-0.38438 c -2.66818,-0.2114 -7.03428,-0.2114 -9.70245,0 l -4.85124,0.38438 4.53874,11.5594 c 2.4963,6.35766 4.81997,11.5594 5.16372,11.5594 0.34375,0 2.66743,-5.20174 5.16373,-11.5594 z m -20.16707,1.8781 c -0.007,-2.23291 -12.28104,-32.1875 -13.18797,-32.1875 -0.94843,0 -5.33348,17.63571 -5.48704,22.06774 -0.10063,2.90385 11.06006,10.97313 15.24085,11.0193 1.89062,0.0209 3.436,-0.38391 3.43416,-0.89954 z m 42.67965,-3.69436 c 3.34053,-2.54751 6.04145,-5.50064 6.00204,-6.5625 -0.15965,-4.30206 -4.37818,-21.11368 -5.39691,-21.50769 -0.93723,-0.36249 -13.26875,29.1376 -13.2781,31.76455 -0.009,2.5652 7.23344,0.45389 12.67297,-3.69436 z m -11.59297,-25.53483 c 3.32666,-8.00484 3.33405,-7.87793 -0.56178,-9.653 -2.41929,-1.1023 -4.5238,-1.12216 -8.39685,-0.0793 -3.0208,0.81343 -8.8212,1.07099 -13.95907,0.61985 -12.10178,-1.0626 -13.02239,-0.23236 -9.46399,8.53498 l 2.83871,6.99412 13.43816,0 13.43817,0 2.66665,-6.41669 z m -5.73069,-20.26888 c 10.76191,-4.50982 18.36296,-16.08678 18.38514,-28.00193 0.0113,-6.11185 0.22067,-6.5625 3.04792,-6.5625 3.23584,0 6.96429,-2.9254 6.96429,-5.46429 0,-2.18705 -2.63701,-4.53571 -5.09256,-4.53571 -2.7495,0 -12.65812,-5.5739 -15.50938,-8.72451 -2.22797,-2.46189 -2.27457,-2.45389 -6.30014,1.0806 -7.28813,6.39907 -19.2527,6.14822 -25.94488,-0.54397 -2.12033,-2.12032 -3.47304,-2.71013 -4.05522,-1.76815 -1.46066,2.3634 -14.07263,9.95603 -16.53777,9.95603 -2.64413,0 -5.31005,2.27717 -5.31005,4.53571 0,2.53889 3.72845,5.46429 6.96429,5.46429 2.78723,0 3.03629,0.48599 3.04268,5.9375 0.004,3.26562 0.56409,7.94301 1.24503,10.39419 1.68357,6.06047 9.38954,14.76101 15.55324,17.56065 6.04781,2.747 17.79581,3.08231 23.54741,0.67209 z m -36.60265,-60.18943 2.93579,-3.125 -3.3429,0 c -2.73242,0 -3.34289,0.57069 -3.34289,3.125 0,1.71875 0.1832,3.125 0.40711,3.125 0.2239,0 1.7282,-1.40625 3.34289,-3.125 z m 33.18469,-0.18253 c 4.16547,-4.49463 4.07359,-10.3433 -0.23014,-14.64702 -6.71858,-6.71856 -17.95455,-1.9895 -17.95455,7.55682 0,9.47904 11.7316,14.05319 18.18469,7.0902 z m -11.04396,-3.71842 c -1.90613,-1.90613 -0.84984,-6.56856 1.66926,-7.36809 3.28339,-1.04211 6.4179,1.54965 5.93784,4.90965 -0.37524,2.62626 -5.71394,4.3516 -7.6071,2.45844 z m 32.85927,3.90095 c 0,-2.55431 -0.61048,-3.125 -3.34289,-3.125 l -3.3429,0 2.93579,3.125 c 1.61469,1.71875 3.11899,3.125 3.34289,3.125 0.22391,0 0.40711,-1.40625 0.40711,-3.125 z m -46.14693,-17.75729 c 8.24708,-12.64187 25.29678,-12.64187 33.54385,0 2.617,4.01158 3.66385,4.63229 7.8125,4.63229 3.99593,0 4.79058,-0.42499 4.79058,-2.56207 0,-3.61378 -3.23413,-9.43484 -6.52099,-11.73706 -2.2487,-1.57504 -6.72912,-1.95087 -23.25715,-1.95087 l -20.47186,0 -4.25,4.25 c -3.00538,3.00538 -4.25,5.3848 -4.25,8.125 0,3.65926 0.26671,3.875 4.79057,3.875 4.14865,0 5.1955,-0.62071 7.8125,-4.63229 z" style="fill:#ffffff;fill-opacity:1;stroke:none"></path></g></svg> 