<svg xmlns="http://www.w3.org/2000/svg" width="165" height="26"><path fill="#c29265" d="M30.667 7.67c.192-.423.35-.761.472-1.013.116-.241.284-.531.502-.868.211-.328.427-.598.645-.81.327-.302.539-.37.666-.293.14.084.202.307.133.739-.05.298-.122.607-.215.923a8.59 8.59 0 01-.35.964c-.143.334-.285.645-.424.933-.137.284-.307.601-.51.951-.207.357-.383.658-.528.903-.144.243-.33.544-.558.903-.231.365-.405.647-.522.846a89.26 89.26 0 01-1.565 2.49c.673-2.553 1.425-4.775 2.254-6.668zm-11.619 5.99c0-.486-.355-.898-.818-.898-.463 0-.819.412-.819.898 0 .487.356.898.819.898.463 0 .818-.412.818-.898zm-2.088 0c0-.486-.355-.898-.818-.898-.463 0-.819.412-.819.898 0 .487.356.898.819.898.463 0 .818-.412.818-.898zM5.177 17.355c3-.966 5.845-2.453 8.534-4.457a47.148 47.148 0 002.015-1.567 27.3 27.3 0 001.22-1.046 29.56 29.56 0 001.17-1.143c.437-.45.809-.87 1.114-1.266.305-.395.598-.83.88-1.306.287-.487.495-.952.622-1.394.129-.446.188-.907.178-1.382a3.215 3.215 0 00-.338-1.385A3.673 3.673 0 0019.57 1.15a4.445 4.445 0 00-1.363-.76 7.125 7.125 0 00-1.602-.332 11 11 0 00-1.68-.043 19.01 19.01 0 00-1.686.171 18.85 18.85 0 00-1.54.279c-.427.099-.86.205-1.3.318C6.502 1.839 3.114 3.865.234 6.857L0 7.102l.237.243c.077.079.14.1.258.125l.06.012.062-.01c.303-.047.531-.138.684-.296a20.487 20.487 0 015.214-3.879 18.334 18.334 0 016.052-1.916c.386-.055.766-.094 1.145-.117.377-.022.8-.027 1.27-.013.463.013.894.054 1.293.121a6.01 6.01 0 011.172.326c.377.146.694.327.951.54.248.206.452.477.613.816.16.337.245.727.254 1.175.008.39-.059.8-.202 1.23-.147.447-.33.861-.546 1.244a8.58 8.58 0 01-.881 1.24c-.377.45-.726.836-1.046 1.155a23.73 23.73 0 01-1.187 1.093 34.678 34.678 0 01-2.186 1.769c-2.403 1.856-5.299 3.35-8.69 4.482.235-.911.521-2.08.859-3.505.4-1.691.783-3.235 1.147-4.632A55.965 55.965 0 017.69 4.42l.128-.375-.519-.107-.065.012c-.293.055-.5.157-.609.358-.402.71-.749 1.532-1.039 2.463-.285.917-.57 2-.855 3.248-.282 1.234-.49 2.088-.625 2.557l-.321 1.116a224.783 224.783 0 01-.6 2.055.719.719 0 00-.453.153c-.328.224-.388.599-.096.882a2.868 2.868 0 00.189.176h-.017l-.128.065c-.33.17-.533.315-.633.484-.115.198-.054.467.197.553.09.031.172.029.28.01a47.79 47.79 0 00-.75 3.137.369.369 0 00.135.37c.07.055.142.075.218.08a.89.89 0 00.244-.023l.013-.003c.41-.102.665-.243.751-.51.302-.873.62-1.892.95-3.052a64.007 64.007 0 005.107 4.028 43.59 43.59 0 011.132.805c.178.13.439.31.784.54.346.233.633.418.861.557.225.136.51.307.858.514.359.212.674.378.95.497l.887.385c.35.153.679.267.986.342.296.072.609.135.937.188.338.054.67.08.996.074a4.73 4.73 0 00.958-.111.588.588 0 00.466-.372.532.532 0 00-.149-.604.66.66 0 00-.56-.145l-.016.002a3.379 3.379 0 01-.522.064c-.179.008-.356 0-.53-.025-.19-.027-.376-.059-.557-.095a4.602 4.602 0 01-.554-.15 8.906 8.906 0 01-1.1-.435 58.29 58.29 0 01-.53-.251 22.657 22.657 0 01-.511-.256c-1.432-.739-3.104-1.815-5.015-3.227a77.831 77.831 0 01-3.785-3.04zm21.326-.868a.677.677 0 00-.353.195 7.947 7.947 0 01-1.858 1.435 6.355 6.355 0 01-2.097.754c-1.638.273-2.526-.163-2.814-1.314-.109-.438-.143-.968-.1-1.588a.49.49 0 00-.37-.537.768.768 0 00-.487.033.637.637 0 00-.377.344c-.102.226-.228.477-.375.746a8.925 8.925 0 01-.546.864c-.218.31-.44.582-.665.817a2.53 2.53 0 01-.693.52c-.228.115-.43.155-.611.128a3.286 3.286 0 01-.2-.037c.004-.09.013-.209.027-.355a9.73 9.73 0 01.186-1.114c.089-.445.198-.9.33-1.37a.4.4 0 00.033-.162c0-.347-.27-.494-.597-.474-.344.03-.593.18-.677.47-.02.062-.053.17-.098.328a16.87 16.87 0 00-.145.489l-.144.535a5.635 5.635 0 00-.138.637c-.023.161-.049.35-.076.567-.032.25-.032.464.004.646.03.16.075.315.133.465.079.207.218.37.409.475.172.095.375.14.602.14.52 0 1.04-.155 1.556-.461a5.429 5.429 0 001.292-1.057 9.05 9.05 0 00.524-.647c.412 1.415 1.516 2.135 3.242 2.11 1.02-.02 2.037-.286 3.048-.795a10.032 10.032 0 001.604-1.004 75.04 75.04 0 00-.328 1.505l-.008.036v.036c0 .13.057.242.148.317l-.3.192 1.333-.077c.472-.028.757-.078.926-.194.432-.268.81-.496 1.132-.684.322-.188.744-.414 1.266-.68.512-.26 1.043-.481 1.594-.663.552-.183 1.1-.324 1.64-.424a9.96 9.96 0 011.625-.138c.533 0 .99.027 1.37.08.38.052.79.145 1.231.28.45.137.815.261 1.094.371.285.113.64.26 1.065.443.43.185.755.321.977.41 1.548.595 3.202.959 4.965 1.094 1.17.089 2.415.09 3.733.005a32.616 32.616 0 003.815-.468 49.178 49.178 0 006.37-1.593l.012-.004a.382.382 0 00.174-.111.35.35 0 00.05-.41.33.33 0 00-.148-.146c-.09-.054-.182-.063-.343-.063-.504-.016-.875.012-1.122.094-.55.174-1.099.34-1.643.498-.542.156-1.159.319-1.85.487-.69.167-1.358.305-2.006.414a45.63 45.63 0 01-2.103.3c-.744.09-1.448.14-2.112.147a25.99 25.99 0 01-2.091-.066 12.293 12.293 0 01-2.232-.38 14.824 14.824 0 01-1.867-.63l-1.671-.705a13.986 13.986 0 00-1.958-.644c-.737-.19-1.514-.31-2.33-.363-2.202-.158-4.456.24-6.757 1.19l-.028.012-2.765 1.76c.156-.39.3-.723.431-1l-.06-.037c.074-.334.16-.695.255-1.085a96.941 96.941 0 003.495-5.089c1.094-1.697 1.939-3.139 2.536-4.326l.478-.951c.05-.101.126-.267.227-.502.104-.242.178-.441.22-.6.04-.151.078-.327.113-.528.037-.217.05-.418.04-.605-.024-.507-.207-.886-.563-1.088-.323-.182-.692-.213-1.09-.101-.34.096-.672.234-.995.415a3.37 3.37 0 00-.798.595 9.222 9.222 0 00-.618.745 8.239 8.239 0 00-.566.877l-.464.826a7.892 7.892 0 00-.45.989c-.149.383-.267.679-.354.885-.095.222-.213.557-.356 1.01l-.289.91a102.146 102.146 0 00-.56 1.852 84.675 84.675 0 00-1.06 3.797z"/><path fill="#524e49" d="M159.686 17.878V9.937h.888v7.113H165v.828zm-10.478-2.904h3.583l-1.786-4.05zm-2.19 2.904L150.6 9.88h.831l3.584 7.998h-.955l-.921-2.099h-4.28l-.933 2.1zm-6.638 0v-7.113h-2.64v-.828h6.179v.828h-2.64v7.113zm-14.073 0V9.937h.831l4.954 6.364V9.937h.865v7.941h-.707l-5.078-6.512v6.512zm-10.647 0V9.937h5.684v.817h-4.797v2.711h4.291v.817h-4.29v2.78h4.852v.816zm-11.018-.828h1.842c1.988 0 3.258-1.361 3.258-3.12v-.022c0-1.759-1.27-3.143-3.258-3.143h-1.842zm-.888.828V9.937h2.73c2.471 0 4.179 1.713 4.179 3.948v.023c0 2.234-1.708 3.97-4.179 3.97zm-11.135 0V9.937h1.38v3.301h3.746V9.937h1.38v7.941h-1.38v-3.347h-3.746v3.347zm-7.776.115c-2.045 0-3.348-1.19-3.348-3.49V9.937h1.382v4.51c0 1.473.752 2.266 1.988 2.266 1.225 0 1.977-.748 1.977-2.21V9.937h1.382v4.498c0 2.368-1.326 3.558-3.381 3.558zm-12.461-4.13h2.022c.988 0 1.618-.52 1.618-1.322v-.023c0-.847-.607-1.31-1.63-1.31h-2.01zM71 17.878V9.937h3.505c.989 0 1.764.295 2.27.794.415.431.65 1.02.65 1.713v.023c0 1.304-.774 2.087-1.875 2.405l2.123 3.006h-1.629l-1.932-2.768h-1.73v2.768zM82.905 8.03c.544 0 .985-.454.985-1.015 0-.56-.441-1.015-.985-1.015s-.985.455-.985 1.015c0 .561.44 1.016.985 1.016zm3.94 0c.544 0 .985-.454.985-1.015 0-.56-.441-1.015-.985-1.015s-.985.455-.985 1.015c0 .561.44 1.016.985 1.016z"/></svg>