<svg xmlns="http://www.w3.org/2000/svg" width="9" height="14"><path fill="#838993" d="M7.928 4.348L4.66 1.08a.221.221 0 00-.322 0L1.07 4.348a.222.222 0 000 .323l.35.35a.222.222 0 00.323 0L4.5 2.265l2.756 2.756a.221.221 0 00.323 0l.35-.35a.222.222 0 000-.323z"/><path fill="none" stroke="#838993" stroke-miterlimit="20" d="M7.928 4.348L4.66 1.08a.221.221 0 00-.322 0L1.07 4.348a.222.222 0 000 .323l.35.35a.222.222 0 00.323 0L4.5 2.265v0l2.756 2.756a.221.221 0 00.323 0l.35-.35a.222.222 0 000-.323z"/><path fill="#838993" d="M7.928 8.923L4.66 12.191a.221.221 0 01-.322 0L1.07 8.923a.222.222 0 010-.322l.35-.35a.222.222 0 01.323 0L4.5 11.005 7.255 8.25a.221.221 0 01.323 0l.35.35a.222.222 0 010 .323z"/><path fill="none" stroke="#838993" stroke-miterlimit="20" d="M7.928 8.923L4.66 12.191a.221.221 0 01-.322 0L1.07 8.923a.222.222 0 010-.322l.35-.35a.222.222 0 01.323 0L4.5 11.005v0L7.255 8.25a.221.221 0 01.323 0l.35.35a.222.222 0 010 .323z"/></svg>