<svg width="133" height="21" xmlns="http://www.w3.org/2000/svg"><path d="M24.533 6.195c.154-.342.28-.615.378-.819a6.82 6.82 0 01.401-.7c.17-.265.342-.483.517-.655.262-.244.43-.298.533-.236.112.068.16.248.106.596a6.36 6.36 0 01-.172.746 6.982 6.982 0 01-.28.779c-.115.27-.228.52-.339.753-.11.23-.246.486-.408.769l-.423.729c-.115.196-.263.44-.446.73-.185.294-.324.522-.418.682a72.175 72.175 0 01-1.251 2.011c.538-2.061 1.139-3.856 1.802-5.385zm-9.294 4.838c0-.393-.284-.725-.655-.725-.37 0-.655.332-.655.725 0 .393.284.726.655.726.37 0 .655-.333.655-.726zm-1.67 0c0-.393-.285-.725-.656-.725-.37 0-.654.332-.654.725 0 .393.284.726.655.726.37 0 .654-.333.654-.726zm-9.427 2.984c2.4-.78 4.675-1.98 6.826-3.6.285-.212.533-.4.743-.564.21-.164.5-.398.87-.701.373-.306.698-.587.976-.845.277-.257.59-.564.936-.923a10.123 10.123 0 001.594-2.077c.23-.394.397-.769.499-1.126.103-.36.15-.733.142-1.116a2.617 2.617 0 00-.27-1.12A2.962 2.962 0 0015.656.93a3.547 3.547 0 00-1.09-.614 5.653 5.653 0 00-1.282-.268A8.716 8.716 0 0011.94.012c-.424.023-.874.069-1.349.138-.474.07-.884.144-1.232.226-.341.08-.688.165-1.04.256-3.117.853-5.827 2.49-8.13 4.907L0 5.736l.19.196c.06.064.112.082.206.101l.049.01.048-.008c.243-.038.425-.112.548-.239a16.401 16.401 0 014.17-3.133 14.568 14.568 0 015.758-1.642c.302-.018.64-.022 1.016-.01.37.01.716.043 1.035.098.314.053.626.14.938.263.301.118.555.264.76.436.199.166.362.385.491.659.128.272.196.587.203.949a2.98 2.98 0 01-.161.994 5.66 5.66 0 01-.438 1.004 6.9 6.9 0 01-.704 1.001c-.302.364-.58.676-.837.934-.258.26-.574.554-.95.882a28.629 28.629 0 01-1.748 1.43c-1.923 1.498-4.24 2.705-6.953 3.619.188-.736.417-1.68.688-2.83.32-1.367.626-2.614.918-3.742.29-1.124.598-2.17.924-3.138l.102-.303-.414-.086-.053.01c-.234.044-.4.126-.487.289a10.195 10.195 0 00-.83 1.989 35.7 35.7 0 00-.685 2.623 46.124 46.124 0 01-.5 2.066l-.257.901a182.544 182.544 0 01-.48 1.66.572.572 0 00-.363.123c-.262.18-.31.484-.076.713a2.299 2.299 0 00.151.141h-.013l-.102.054c-.265.137-.427.253-.507.39-.092.16-.044.378.157.447a.422.422 0 00.224.008 38.916 38.916 0 00-.6 2.533.3.3 0 00.283.364.705.705 0 00.195-.019l.01-.002c.329-.083.532-.196.602-.412a47.45 47.45 0 00.76-2.465 51.278 51.278 0 004.392 3.47c.26.187.46.332.598.433.142.105.351.25.628.438.276.187.506.336.689.448.18.11.408.249.686.416a6.8 6.8 0 00.76.401l.71.312c.28.123.542.215.788.276.237.058.487.109.75.151.27.044.536.065.797.06.26-.004.516-.034.766-.09a.472.472 0 00.373-.3.432.432 0 00-.12-.488.524.524 0 00-.448-.117l-.012.002a2.68 2.68 0 01-.417.051 2.23 2.23 0 01-.425-.02 8.073 8.073 0 01-.445-.077 3.656 3.656 0 01-.443-.121 7.092 7.092 0 01-.88-.351 18.152 18.152 0 01-.834-.41c-1.145-.596-2.483-1.465-4.011-2.606a62.38 62.38 0 01-3.028-2.455zm17.06-.7a.54.54 0 00-.282.157c-.435.458-.93.844-1.487 1.16a5.053 5.053 0 01-1.677.608c-1.31.22-2.02-.132-2.251-1.061-.087-.354-.114-.782-.08-1.283a.395.395 0 00-.297-.434.609.609 0 00-.389.027.512.512 0 00-.302.277 9.04 9.04 0 01-.3.603 7.053 7.053 0 01-.968 1.358 2.035 2.035 0 01-.555.42c-.182.093-.343.125-.489.104a2.604 2.604 0 01-.16-.03 7.929 7.929 0 01.17-1.186 15 15 0 01.265-1.107.323.323 0 00.027-.131c0-.28-.217-.4-.478-.383-.275.024-.475.146-.542.38a9.13 9.13 0 00-.078.264c-.05.164-.09.297-.116.395a99.3 99.3 0 00-.115.432 4.59 4.59 0 00-.11.515c-.02.13-.04.283-.062.458a1.676 1.676 0 00.11.897.722.722 0 00.327.384c.138.077.3.114.482.114.416 0 .832-.126 1.245-.374a4.352 4.352 0 001.034-.853 7.43 7.43 0 00.419-.523c.33 1.143 1.212 1.725 2.593 1.704.816-.016 1.63-.23 2.439-.642a8.014 8.014 0 001.283-.81c-.092.407-.18.812-.263 1.215l-.006.03v.028a.33.33 0 00.118.257l-.24.154 1.066-.062c.378-.022.606-.063.742-.157a21.082 21.082 0 011.918-1.101 9.11 9.11 0 011.275-.536c.442-.147.88-.262 1.313-.342a7.895 7.895 0 011.3-.112 8 8 0 011.096.065c.303.042.631.118.984.226.36.111.652.211.875.3.228.091.512.21.852.358.344.149.604.26.781.331a13.9 13.9 0 003.973.883c.936.072 1.931.074 2.986.005a25.858 25.858 0 003.052-.378 39.06 39.06 0 005.095-1.286l.011-.004a.305.305 0 00.139-.09.285.285 0 00.04-.331.266.266 0 00-.118-.118c-.073-.044-.146-.051-.275-.051-.403-.013-.7.01-.897.076-.44.14-.88.275-1.315.402a35.67 35.67 0 01-1.48.393c-.551.135-1.086.247-1.605.334-.52.089-1.082.17-1.683.244-.595.073-1.158.112-1.689.118a20.588 20.588 0 01-1.673-.053 9.748 9.748 0 01-1.785-.307 11.783 11.783 0 01-1.494-.509l-1.337-.57c-.458-.195-.98-.369-1.566-.52a10.03 10.03 0 00-1.864-.293c-1.762-.128-3.565.194-5.406.961l-.022.01-2.212 1.422c.125-.315.24-.584.345-.808l-.049-.03c.06-.27.128-.562.205-.876a78.336 78.336 0 002.796-4.11c.875-1.371 1.55-2.536 2.028-3.495l.383-.768c.04-.082.1-.216.181-.405a3.74 3.74 0 00.177-.485 5.11 5.11 0 00.09-.427c.03-.175.04-.337.031-.488-.019-.41-.165-.716-.45-.879-.257-.147-.553-.172-.871-.082-.273.078-.538.19-.796.336a2.697 2.697 0 00-.639.48 6.661 6.661 0 00-.947 1.31l-.371.667a6.404 6.404 0 00-.36.799c-.12.31-.214.548-.284.715-.075.18-.17.45-.285.816l-.23.734a83.732 83.732 0 00-.448 1.496 68.91 68.91 0 00-.848 3.068z" fill="#c29265"/><path d="M128.76 13.909V7.953h.709v5.335H133v.62zm-8.36-2.179h2.859l-1.425-3.037zm-1.748 2.179l2.86-5.999h.662l2.86 5.999h-.762l-.735-1.574h-3.415l-.744 1.574zm-5.295 0V8.574h-2.107v-.621h4.93v.62h-2.106v5.336zm-11.23 0V7.953h.663l3.945 4.773V7.953h.689v5.956h-.564l-4.043-4.884v4.884zm-8.494 0V7.953h4.535v.612h-3.827V10.6h3.424v.612H94.34v2.085h3.872v.613zm-8.791-.611h1.47c1.586 0 2.6-1.024 2.6-2.345v-.017c0-1.322-1.014-2.362-2.6-2.362h-1.47zm-.708.61V7.954h2.182c1.975 0 3.34 1.284 3.34 2.96v.018c0 1.676-1.365 2.978-3.34 2.978zm-8.885 0V7.954h1.103v2.476h2.993V7.953h1.103v5.956h-1.103v-2.51h-2.993v2.51zm-6.204.094c-1.632 0-2.671-.893-2.671-2.62v-3.43h1.102v3.387c0 1.106.6 1.702 1.587 1.702.977 0 1.577-.562 1.577-1.66V7.954h1.103v3.378c0 1.778-1.058 2.671-2.698 2.671zm-9.943-3.097h1.62c.79 0 1.295-.391 1.295-.995v-.017c0-.639-.486-.987-1.305-.987h-1.61zM58 13.91V7.953h2.797c.788 0 1.407.22 1.81.595.332.323.52.766.52 1.285v.017c0 .979-.619 1.566-1.497 1.804l1.694 2.255h-1.3l-1.541-2.076h-1.38v2.076z" fill="#1a1c1a"/></svg>