<svg xmlns="http://www.w3.org/2000/svg" width="31" height="22" viewBox="0 0 31 22"><g><g><g><path fill="#eeab7e" d="M26.398 17.816c0 .132-.14.358-.274.358h-5.31c-.133 0-.228-.226-.228-.358v-7.055h5.812zM20.586 7.048c0-.133.095-.113.228-.113h5.31c.134 0 .274-.02.274.113v2.288h-5.812zm-2.17 10.768c0 .132-.116.358-.249.358h-5.319c-.134 0-.254-.226-.254-.358v-7.055h5.822zM12.848 6.935h5.319c.133 0 .249-.02.249.113v2.288h-5.822V7.048c0-.133.12-.113.254-.113zm-2.657 11.239H4.88c-.134 0-.28-.226-.28-.358v-7.055h5.813v7.055c0 .132-.09.358-.223.358zM4.6 7.048c0-.133.146-.113.28-.113h5.31c.133 0 .223-.02.223.113v2.288H4.602zm25.673 13.517h-.485V.844c0-.844-.123-.844-.257-.844h-8.704v.858c0 1.055-.894 2.012-1.962 2.012h-.702v.605c0 1.054-.857 2.025-1.925 2.025h-1.473c-1.067 0-1.93-.97-1.93-2.025V2.87H12.1c-1.067 0-1.928-.957-1.928-2.012V0H1.467c-.134 0-.256 0-.256.844v19.721H.726a.722.722 0 0 0-.726.718c0 .395.325.717.726.717h29.548a.722.722 0 0 0 .726-.717.722.722 0 0 0-.726-.718z"/></g></g></g></svg>