<svg xmlns="http://www.w3.org/2000/svg" width="43" height="27" viewBox="0 0 43 27"><g><g><path fill="#fff" d="M1 3a3 3 0 0 1 3-3h6a3 3 0 0 1 3 3v6a3 3 0 0 1-3 3H4a3 3 0 0 1-3-3z"/></g><g><g><path fill="#eeab7e" d="M38.29 23.808l-.058.056a1.658 1.658 0 0 1-1.166.478h-6.442c-.452 0-.892-.189-1.206-.518a1.723 1.723 0 0 1-.47-1.247 28.49 28.49 0 0 1 .253-2.855h3.413v1.303h2.52v-1.303h3.415c.163 1.15.227 2.168.251 2.8.019.481-.167.95-.51 1.286zM33.87 12.55c2.264 0 3.49 2.212 4.153 4.62h-2.896v-1.19h-2.516v1.19h-2.895c.663-2.41 1.889-4.62 4.154-4.62zm-7.944 11.257l-.058.056a1.66 1.66 0 0 1-1.168.478h-6.448c-.453 0-.893-.189-1.208-.518a1.722 1.722 0 0 1-.47-1.247 28.46 28.46 0 0 1 .253-2.855h3.417v1.303h2.522v-1.303h3.419c.163 1.15.226 2.168.251 2.8.019.481-.167.95-.51 1.286zM21.5 12.55c2.266 0 3.493 2.212 4.157 4.62H22.76v-1.19h-2.52v1.19h-2.898c.664-2.41 1.891-4.62 4.159-4.62zm-7.959 11.256l-.058.057a1.658 1.658 0 0 1-1.166.478H5.876c-.452 0-.892-.189-1.206-.518a1.723 1.723 0 0 1-.47-1.247c.024-.643.087-1.683.252-2.855H7.84v1.303h2.52v-1.303H13.8c.162 1.15.226 2.168.25 2.8.02.481-.166.95-.509 1.285zm-4.42-11.256c2.263 0 3.489 2.212 4.152 4.62h-2.922v-1.19H7.835v1.19H4.967c.664-2.41 1.89-4.62 4.155-4.62zM43 17.17h-2.36a17.446 17.446 0 0 0-.584-1.96C38.475 10.904 35.822 10 33.876 10c-1.953 0-4.608.908-6.188 5.229l-.006-.018C26.1 10.904 23.448 10 21.5 10c-1.952 0-4.608.908-6.187 5.229l-.006-.018C13.727 10.904 11.074 10 9.127 10c-1.956 0-4.62.912-6.198 5.257a17.524 17.524 0 0 0-.567 1.914H0v2.55h1.905a31.246 31.246 0 0 0-.223 2.76 4.304 4.304 0 0 0 1.176 3.116 4.193 4.193 0 0 0 3.018 1.296h6.442a4.15 4.15 0 0 0 2.918-1.196l.049-.048a4.193 4.193 0 0 0 2.965 1.244h6.442a4.15 4.15 0 0 0 2.919-1.196l.048-.048a4.192 4.192 0 0 0 2.965 1.244h6.442a4.15 4.15 0 0 0 2.919-1.196l.057-.057a4.278 4.278 0 0 0 1.276-3.218 31.212 31.212 0 0 0-.221-2.7H43z"/></g></g></g></svg>